<svg xmlns="http://www.w3.org/2000/svg" version="1.1" xmlns:xlink="http://www.w3.org/1999/xlink" xmlns:svgjs="http://svgjs.dev/svgjs" width="1500" height="1500" viewBox="0 0 1500 1500"><rect width="1500" height="1500" fill="#ffffff"></rect><g transform="matrix(0.6666666666666666,0,0,0.6666666666666666,250,250)"><svg viewBox="0 0 280 280" data-background-color="#030000" preserveAspectRatio="xMidYMid meet" height="1500" width="1500" xmlns="http://www.w3.org/2000/svg" xmlns:xlink="http://www.w3.org/1999/xlink"><g id="tight-bounds" transform="matrix(1,0,0,1,0,0)"><svg viewBox="0 0 280 280" height="280" width="280"><g><svg viewBox="0 0 280 280" height="280" width="280"><g transform="matrix(1,0,0,1,60.80404050710668,116.75039484295812)"><svg viewBox="0 0 158.39191898578665 46.499210314083776" height="46.499210314083776" width="158.39191898578665"><g><svg viewBox="0 0 268.1963302383261 78.73455694628254" height="46.499210314083776" width="158.39191898578665"><g transform="matrix(1,0,0,1,0,3.528260395963997)"><svg viewBox="0 0 158.39191898578665 71.67803615435454" height="71.67803615435454" width="158.39191898578665"><g id="textblocktransform"><svg viewBox="0 0 158.39191898578665 71.67803615435454" height="71.67803615435454" width="158.39191898578665" id="textblock"><g><svg viewBox="0 0 158.39191898578665 50.484612240648396" height="50.484612240648396" width="158.39191898578665"><g transform="matrix(1,0,0,1,0,0)"><svg width="158.39191898578665" viewBox="4.88 -38.84 163.3 52.050000000000004" height="50.484612240648396" data-palette-color="#f9f6f2"><g class="wordmark-text-0" data-fill-palette-color="primary" id="text-0"><path d="M4.88-6.15L4.88-30.79Q4.88-32.08 5.25-33.22 5.62-34.35 6.24-35.19 6.86-36.04 7.69-36.51 8.52-36.99 9.47-36.99L9.47-36.99 29-36.99 29-32.86 10.72-32.86 10.72-4.2 23.27-4.2 23.27-21.56 29.05-21.56 29 2.86Q29 4.1 28.65 5.21 28.3 6.32 27.69 7.17 27.08 8.01 26.25 8.5 25.42 8.98 24.49 8.98L24.49 8.98 23.27 8.98 23.27 0 9.47 0Q8.52 0 7.69-0.49 6.86-0.98 6.24-1.81 5.62-2.64 5.25-3.76 4.88-4.88 4.88-6.15L4.88-6.15ZM37.6-6.13L37.6-18.68Q37.6-20.14 38-21.41 38.4-22.68 39.11-23.61 39.82-24.54 40.78-25.06 41.75-25.59 42.87-25.59L42.87-25.59 59.32-25.59 59.32-4.17 64.62-4.17Q64.52-3.32 64.15-2.55 63.77-1.78 63.19-1.22 62.62-0.66 61.89-0.33 61.15 0 60.35 0L60.35 0 57.74 0Q56.54 0 55.47-0.82 54.39-1.64 53.68-3.03L53.68-3.03Q52.98-1.64 51.9-0.82 50.83 0 49.63 0L49.63 0 42.23 0Q41.28 0 40.43-0.49 39.57-0.98 38.95-1.81 38.33-2.64 37.96-3.75 37.6-4.86 37.6-6.13L37.6-6.13ZM43.41-4.17L53.51-4.17 53.51-21.39 43.41-21.39 43.41-4.17ZM68.38-6.2L68.38-38.84 74.21-38.84 74.21-4.17 79.41-4.17Q79.27-3.2 78.86-2.42 78.46-1.64 77.89-1.1 77.31-0.56 76.59-0.28 75.87 0 75.09 0L75.09 0 73.04 0Q72.09 0 71.24-0.49 70.38-0.98 69.75-1.82 69.11-2.66 68.75-3.78 68.38-4.91 68.38-6.2L68.38-6.2ZM83.32-6.13L83.32-18.68Q83.32-20.14 83.72-21.41 84.12-22.68 84.83-23.61 85.54-24.54 86.5-25.06 87.47-25.59 88.59-25.59L88.59-25.59 105.05-25.59 105.05-4.17 110.34-4.17Q110.25-3.32 109.87-2.55 109.49-1.78 108.92-1.22 108.34-0.66 107.61-0.33 106.88 0 106.07 0L106.07 0 103.46 0Q102.26 0 101.19-0.82 100.11-1.64 99.41-3.03L99.41-3.03Q98.7-1.64 97.62-0.82 96.55 0 95.35 0L95.35 0 87.96 0Q87 0 86.15-0.49 85.3-0.98 84.67-1.81 84.05-2.64 83.68-3.75 83.32-4.86 83.32-6.13L83.32-6.13ZM89.13-4.17L99.24-4.17 99.24-21.39 89.13-21.39 89.13-4.17ZM110.27 0L120.69-13.45 111.56-25.56 117.28-25.56 123.74-17.41 130.07-25.56 135.78-25.56 126.75-13.62 134.27-4.17 137.73-4.17Q137.64-3.32 137.27-2.56 136.9-1.81 136.35-1.25 135.81-0.68 135.09-0.34 134.37 0 133.58 0L133.58 0 130.87 0 123.67-9.52 116.47 0 110.27 0ZM141.52-6.2L141.52-25.56 147.35-25.56 147.35-4.17 157.41-4.17 157.41-25.56 163.24-25.56 163.24-4.17 168.18-4.17Q168.08-3.32 167.7-2.55 167.32-1.78 166.75-1.22 166.17-0.66 165.44-0.33 164.71 0 163.9 0L163.9 0 163.24 0 163.24 6.96Q163.24 8.25 162.88 9.39 162.51 10.52 161.88 11.36 161.24 12.21 160.4 12.71 159.56 13.21 158.61 13.21L158.61 13.21 146.79 13.21 146.79 8.98 157.41 8.98 157.41-2.61Q156.75-1.39 155.71-0.7 154.68 0 153.5 0L153.5 0 146.15 0Q145.2 0 144.35-0.49 143.49-0.98 142.87-1.82 142.25-2.66 141.88-3.78 141.52-4.91 141.52-6.2L141.52-6.2Z" fill="#000000" data-fill-palette-color="primary"></path></g></svg></g></svg></g><g transform="matrix(1,0,0,1,65.40002334923132,62.40281755997171)"><svg viewBox="0 0 92.99189563655533 9.275218594382846" height="9.275218594382846" width="92.99189563655533"><g transform="matrix(1,0,0,1,0,0)"><svg width="92.99189563655533" viewBox="4.83 -46.39 587.16 58.57" height="9.275218594382846" data-palette-color="#f9f7f3"><path d="M5.35-1.81L5.35-1.81Q5.35-3.05 5.43-4.27 5.52-5.49 5.52-6.88L5.52-6.88Q5.52-7.28 5.52-7.78 5.52-8.28 5.51-9.27 5.49-10.25 5.47-11.93 5.44-13.6 5.41-16.36 5.37-19.12 5.32-23.16 5.27-27.2 5.2-32.91L5.2-32.91Q5.2-33.59 5.02-34.29 4.83-34.99 4.83-35.77L4.83-35.77Q4.83-36.4 4.99-36.89 5.15-37.38 5.58-37.72 6.01-38.06 6.71-38.24 7.42-38.43 8.52-38.43L8.52-38.43Q9.08-38.43 9.5-38.2 9.91-37.96 10.19-37.59 10.47-37.21 10.61-36.74 10.74-36.28 10.74-35.82L10.74-35.82Q10.74-34.72 10.67-33.58 10.6-32.45 10.6-31.01L10.6-31.01 10.6-25.61Q13.13-25.54 15.48-25.46 17.82-25.39 20.36-25.39L20.36-25.39Q22.12-25.39 23.88-25.52 25.63-25.66 27.56-25.71L27.56-25.71Q27.56-26.17 27.58-26.75 27.59-27.32 27.59-28.15 27.59-28.98 27.59-30.13 27.59-31.27 27.59-32.91L27.59-32.91Q27.59-33.62 27.44-34.33 27.29-35.03 27.29-35.77L27.29-35.77Q27.29-36.4 27.45-36.89 27.61-37.38 28.04-37.72 28.47-38.06 29.19-38.24 29.91-38.43 31.01-38.43L31.01-38.43Q31.59-38.43 32.01-38.16 32.42-37.89 32.68-37.49 32.93-37.08 33.04-36.63 33.15-36.18 33.15-35.82L33.15-35.82Q33.15-33.96 33.04-32.09 32.93-30.22 32.89-28.15L32.89-28.15Q32.89-26.46 32.89-24.78 32.89-23.1 32.9-21.31 32.91-19.53 32.91-17.6 32.91-15.67 32.91-13.55L32.91-13.55Q32.91-11.08 32.97-9.39 33.03-7.69 33.12-6.53 33.2-5.37 33.3-4.66 33.4-3.96 33.47-3.47L33.47-3.47Q33.54-3.05 33.59-2.66 33.64-2.27 33.64-1.83L33.64-1.83Q33.64-1.27 33.51-0.81 33.37-0.34 33.04-0.01 32.71 0.32 32.15 0.51 31.59 0.71 30.74 0.71L30.74 0.71Q29.76 0.71 29.13 0.55 28.49 0.39 28.11 0.06 27.73-0.27 27.58-0.73 27.42-1.2 27.42-1.83L27.42-1.83Q27.42-3.1 27.6-4.35 27.78-5.59 27.78-6.91L27.78-6.91Q27.78-10.11 27.67-13.38 27.56-16.65 27.54-20.41L27.54-20.41Q25.81-20.43 23.56-20.42 21.31-20.41 18.98-20.37 16.65-20.34 14.47-20.28 12.28-20.21 10.64-20.19L10.64-20.19Q10.69-16.26 10.77-13.59 10.84-10.91 10.91-9.14 10.99-7.37 11.07-6.31 11.16-5.25 11.23-4.57L11.23-4.57Q11.3-3.91 11.34-3.3 11.38-2.69 11.38-1.81L11.38-1.81Q11.38-1.25 11.25-0.79 11.13-0.34 10.8 0 10.47 0.34 9.92 0.52 9.38 0.71 8.5 0.71L8.5 0.71Q7.52 0.71 6.91 0.55 6.3 0.39 5.94 0.07 5.59-0.24 5.47-0.71 5.35-1.17 5.35-1.81ZM47.19-11.01L47.19-11.01Q47.65-9.18 48.57-7.95 49.48-6.71 50.63-5.96 51.78-5.2 53.06-4.87 54.34-4.54 55.56-4.54L55.56-4.54Q57.47-4.54 58.96-4.87 60.45-5.2 61.51-5.68 62.57-6.15 63.23-6.67 63.89-7.18 64.16-7.57L64.16-7.57Q64.4-7.93 64.71-8.26 65.01-8.59 65.37-8.85 65.72-9.11 66.07-9.25 66.43-9.4 66.75-9.4L66.75-9.4Q67.97-9.4 68.64-8.68 69.31-7.96 69.31-6.74L69.31-6.74Q69.31-6.27 68.97-5.57 68.63-4.86 67.7-4L67.7-4Q66.67-3.05 65.41-2.2 64.16-1.34 62.64-0.7 61.13-0.05 59.36 0.33 57.59 0.71 55.54 0.71L55.54 0.71Q53.12 0.71 51.12 0.06 49.12-0.59 47.53-1.7 45.94-2.81 44.77-4.27 43.6-5.74 42.82-7.4 42.04-9.06 41.65-10.82 41.26-12.57 41.26-14.23L41.26-14.23Q41.26-17.85 42.43-20.76 43.6-23.68 45.65-25.76 47.7-27.83 50.51-28.96 53.32-30.08 56.59-30.08L56.59-30.08Q58.93-30.08 60.98-29.38 63.03-28.69 64.63-27.43 66.23-26.17 67.32-24.43 68.41-22.68 68.85-20.58L68.85-20.58Q69.33-20.17 69.57-19.49 69.8-18.82 69.8-18.16L69.8-18.16Q69.8-17.07 69.05-16.37 68.31-15.67 67.19-15.41L67.19-15.41Q64.72-14.77 62.25-14.23 59.79-13.7 57.3-13.18 54.81-12.67 52.28-12.13 49.75-11.6 47.19-11.01ZM46.77-15.53L46.77-15.53Q50.93-16.5 55.17-17.36 59.42-18.21 63.82-19.26L63.82-19.26Q63.4-20.39 62.69-21.4 61.98-22.41 61.03-23.17 60.08-23.93 58.92-24.37 57.76-24.8 56.42-24.8L56.42-24.8Q54.34-24.8 52.65-24.13 50.95-23.46 49.7-22.25 48.46-21.04 47.7-19.32 46.95-17.6 46.77-15.53ZM78.9-2.51L78.9-2.51Q78.9-4.03 78.97-5.71L78.97-5.71Q79.02-6.59 79.05-7.7 79.07-8.81 79.07-9.91L79.07-9.91Q79.07-10.64 79.06-12.24 79.05-13.84 79.04-16.04 79.02-18.24 78.99-20.92 78.95-23.61 78.91-26.53 78.88-29.44 78.84-32.47 78.8-35.5 78.75-38.4L78.75-38.4Q77.8-38.38 76.83-38.29 75.85-38.21 74.82-38.21L74.82-38.21Q74.38-38.21 73.93-38.35 73.48-38.5 73.12-38.81 72.75-39.11 72.5-39.62 72.26-40.14 72.26-40.87L72.26-40.87Q72.26-42.16 72.96-42.83 73.65-43.51 74.58-43.51L74.58-43.51Q75.43-43.51 76.26-43.41 77.09-43.31 78.02-43.31L78.02-43.31Q78.71-43.31 79.22-43.33 79.73-43.36 80.21-43.4 80.68-43.43 81.22-43.47 81.76-43.51 82.51-43.51L82.51-43.51Q83.54-43.51 84.19-42.86 84.83-42.21 84.83-40.87L84.83-40.87Q84.83-40.38 84.75-39.92 84.66-39.45 84.55-38.99 84.44-38.53 84.36-38.05 84.27-37.57 84.25-37.08L84.25-37.08 84.25-5.08Q85.25-5.37 85.85-5.52 86.45-5.66 86.88-5.66L86.88-5.66Q89.45-5.66 89.45-2.98L89.45-2.98Q89.45-1.88 88.7-1.28 87.96-0.68 86.57-0.34L86.57-0.34 84.13 0.29Q83.3 0.56 82.83 0.63 82.37 0.71 81.83 0.71L81.83 0.71Q81.05 0.71 80.5 0.42 79.95 0.12 79.6-0.35 79.24-0.83 79.07-1.39 78.9-1.95 78.9-2.51ZM98.19-2.51L98.19-2.51Q98.19-4.03 98.26-5.71L98.26-5.71Q98.31-6.59 98.33-7.7 98.36-8.81 98.36-9.91L98.36-9.91Q98.36-10.64 98.34-12.24 98.33-13.84 98.32-16.04 98.31-18.24 98.27-20.92 98.23-23.61 98.2-26.53 98.16-29.44 98.12-32.47 98.09-35.5 98.04-38.4L98.04-38.4Q97.09-38.38 96.11-38.29 95.13-38.21 94.11-38.21L94.11-38.21Q93.67-38.21 93.22-38.35 92.77-38.5 92.4-38.81 92.03-39.11 91.79-39.62 91.55-40.14 91.55-40.87L91.55-40.87Q91.55-42.16 92.24-42.83 92.94-43.51 93.86-43.51L93.86-43.51Q94.72-43.51 95.55-43.41 96.38-43.31 97.31-43.31L97.31-43.31Q97.99-43.31 98.5-43.33 99.02-43.36 99.49-43.4 99.97-43.43 100.51-43.47 101.04-43.51 101.8-43.51L101.8-43.51Q102.82-43.51 103.47-42.86 104.12-42.21 104.12-40.87L104.12-40.87Q104.12-40.38 104.03-39.92 103.95-39.45 103.84-38.99 103.73-38.53 103.64-38.05 103.56-37.57 103.53-37.08L103.53-37.08 103.53-5.08Q104.53-5.37 105.13-5.52 105.73-5.66 106.17-5.66L106.17-5.66Q108.73-5.66 108.73-2.98L108.73-2.98Q108.73-1.88 107.99-1.28 107.24-0.68 105.85-0.34L105.85-0.34 103.41 0.29Q102.58 0.56 102.12 0.63 101.65 0.71 101.12 0.71L101.12 0.71Q100.33 0.71 99.78 0.42 99.24 0.12 98.88-0.35 98.53-0.83 98.36-1.39 98.19-1.95 98.19-2.51ZM113.93-14.72L113.93-14.72Q113.93-17.9 115.11-20.69 116.3-23.49 118.36-25.57 120.42-27.66 123.18-28.87 125.94-30.08 129.09-30.08L129.09-30.08Q132.53-30.08 135.33-28.87 138.12-27.66 140.11-25.57 142.1-23.49 143.18-20.69 144.25-17.9 144.25-14.72L144.25-14.72Q144.25-12.4 143.7-10.35 143.15-8.3 142.15-6.59 141.15-4.88 139.75-3.53 138.34-2.17 136.66-1.23 134.98-0.29 133.06 0.21 131.14 0.71 129.09 0.71L129.09 0.71Q126.02 0.71 123.26-0.4 120.5-1.51 118.42-3.53 116.35-5.54 115.14-8.39 113.93-11.23 113.93-14.72ZM119.57-14.72L119.57-14.72Q119.57-12.4 120.23-10.52 120.89-8.64 122.12-7.31 123.35-5.98 125.11-5.26 126.87-4.54 129.07-4.54L129.07-4.54Q131.02-4.54 132.75-5.2 134.49-5.86 135.79-7.14 137.1-8.42 137.87-10.33 138.64-12.23 138.64-14.72L138.64-14.72Q138.64-16.77 137.99-18.62 137.34-20.46 136.12-21.83 134.9-23.19 133.12-24 131.34-24.8 129.07-24.8L129.07-24.8Q126.8-24.8 125.04-24 123.28-23.19 122.06-21.83 120.84-20.46 120.2-18.62 119.57-16.77 119.57-14.72ZM169.3-18.46L169.3-18.46Q169.3-23.46 170.74-27.2 172.18-30.93 174.72-33.42 177.26-35.91 180.72-37.16 184.19-38.4 188.27-38.4L188.27-38.4Q189.32-38.4 190.63-38.37 191.95-38.33 193.33-38.18 194.71-38.04 196.05-37.77 197.4-37.5 198.54-37.06L198.54-37.06Q199.45-36.72 200.06-36.08 200.67-35.45 200.67-34.25L200.67-34.25Q200.67-32.86 199.97-32.02 199.28-31.18 198.35-31.18L198.35-31.18Q198.15-31.18 197.84-31.23 197.52-31.27 197.3-31.4L197.3-31.4Q196.35-31.91 194.99-32.23 193.64-32.54 192.2-32.74 190.76-32.93 189.39-33.01 188.02-33.08 187.05-33.08L187.05-33.08Q185.7-33.08 184.29-32.75 182.87-32.42 181.52-31.71 180.16-31.01 178.95-29.91 177.74-28.81 176.84-27.29 175.94-25.78 175.4-23.82 174.86-21.85 174.86-19.41L174.86-19.41Q174.86-16.55 175.53-14.36 176.21-12.16 177.38-10.53 178.55-8.91 180.14-7.8 181.72-6.69 183.57-6.01 185.41-5.32 187.41-5.03 189.41-4.74 191.42-4.74L191.42-4.74Q192.29-4.74 193.41-4.77 194.52-4.81 195.61-5L195.61-5Q195.61-7.4 195.6-9.08 195.59-10.77 195.57-12.08 195.54-13.4 195.51-14.5 195.47-15.6 195.42-16.85L195.42-16.85Q195.42-17.72 195.3-18.62 195.18-19.51 195.18-20.53L195.18-20.53Q195.18-20.9 195.33-21.33 195.49-21.75 195.85-22.13 196.2-22.51 196.79-22.77 197.37-23.02 198.25-23.02L198.25-23.02Q199.69-23.02 200.49-22.35 201.28-21.68 201.28-20.53L201.28-20.53Q201.28-20.04 201.25-19.59 201.23-19.14 201.23-18.63L201.23-18.63Q201.21-17.85 201.17-16.74 201.13-15.63 201.11-13.9 201.08-12.18 201.06-9.73 201.03-7.28 201.03-3.86L201.03-3.86Q201.01-2.47 200.67-1.68 200.33-0.9 199.74-0.52 199.15-0.15 198.39-0.07 197.62 0 196.79 0L196.79 0Q196.08 0 195.3 0.07 194.52 0.15 193.71 0.24 192.9 0.34 192.14 0.42 191.37 0.49 190.68 0.49L190.68 0.49Q185.48 0.49 181.49-1.05 177.5-2.59 174.79-5.19 172.08-7.79 170.69-11.22 169.3-14.65 169.3-18.46ZM209.5-14.65L209.5-14.65Q209.5-17.97 210.63-20.83 211.75-23.68 213.72-25.78 215.68-27.88 218.33-29.08 220.98-30.27 224.05-30.27L224.05-30.27Q225.62-30.27 227.05-29.91 228.47-29.54 229.71-28.94 230.94-28.34 231.93-27.59 232.92-26.83 233.63-26.03L233.63-26.03Q233.6-26.37 233.6-26.76 233.6-27.15 233.6-27.44L233.6-27.44Q233.6-28.05 233.77-28.58 233.94-29.1 234.31-29.49 234.67-29.88 235.24-30.11 235.8-30.35 236.6-30.35L236.6-30.35Q237.29-30.35 237.84-30.09 238.39-29.83 238.78-29.46 239.17-29.08 239.39-28.65 239.61-28.22 239.61-27.88L239.61-27.88Q239.61-27.05 239.52-26.21 239.44-25.37 239.39-24.51L239.39-24.51Q239.39-21.83 239.35-19.76 239.31-17.7 239.26-15.97L239.26-15.97Q239.22-14.79 239.19-13.54 239.17-12.28 239.17-11.23L239.17-11.23Q239.17-8.86 239.17-7.47 239.17-6.08 239.29-5.44L239.29-5.44Q239.51-5.49 239.94-5.66 240.36-5.83 240.73-6.03L240.73-6.03Q241.07-6.15 241.41-6.27 241.75-6.4 242.27-6.4L242.27-6.4Q242.85-6.4 243.29-6.14 243.73-5.88 244.04-5.48 244.34-5.08 244.49-4.58 244.64-4.08 244.64-3.61L244.64-3.61Q244.64-2.95 244.32-2.28 244-1.61 243.15-1.32L243.15-1.32Q242.41-1.05 241.66-0.76 240.9-0.46 240.13-0.22 239.36 0.02 238.59 0.2 237.82 0.37 237.02 0.37L237.02 0.37Q236.07 0.37 235.46-0.02 234.85-0.42 234.5-1.04 234.16-1.66 234.02-2.42 233.87-3.17 233.84-3.91L233.84-3.91Q233.09-2.95 232.01-2.12 230.94-1.29 229.65-0.66 228.35-0.02 226.87 0.34 225.4 0.71 223.84 0.71L223.84 0.71Q220.66 0.71 218.02-0.45 215.39-1.61 213.5-3.67 211.6-5.74 210.55-8.54 209.5-11.35 209.5-14.65ZM215.12-14.65L215.12-14.65Q215.12-12.67 215.72-10.84 216.32-9.01 217.45-7.6 218.59-6.2 220.25-5.37 221.91-4.54 224.01-4.54L224.01-4.54Q226.08-4.54 227.77-5.35 229.45-6.15 230.71-7.45 231.96-8.74 232.77-10.34 233.58-11.94 233.87-13.55L233.87-13.55 233.87-15.7Q233.6-17.19 232.86-18.85 232.11-20.51 230.9-21.91 229.69-23.32 228.01-24.23 226.33-25.15 224.2-25.15L224.2-25.15Q222.2-25.15 220.54-24.33 218.88-23.51 217.67-22.08 216.46-20.65 215.79-18.75 215.12-16.85 215.12-14.65ZM251.84-2.51L251.84-2.51Q251.84-4.03 251.91-5.71L251.91-5.71Q251.96-6.59 251.98-7.7 252.01-8.81 252.01-9.91L252.01-9.91Q252.01-10.64 251.99-12.24 251.98-13.84 251.97-16.04 251.96-18.24 251.92-20.92 251.88-23.61 251.85-26.53 251.81-29.44 251.77-32.47 251.74-35.5 251.69-38.4L251.69-38.4Q250.74-38.38 249.76-38.29 248.78-38.21 247.76-38.21L247.76-38.21Q247.32-38.21 246.87-38.35 246.42-38.5 246.05-38.81 245.68-39.11 245.44-39.62 245.19-40.14 245.19-40.87L245.19-40.87Q245.19-42.16 245.89-42.83 246.59-43.51 247.51-43.51L247.51-43.51Q248.37-43.51 249.2-43.41 250.03-43.31 250.96-43.31L250.96-43.31Q251.64-43.31 252.15-43.33 252.67-43.36 253.14-43.4 253.62-43.43 254.15-43.47 254.69-43.51 255.45-43.51L255.45-43.51Q256.47-43.51 257.12-42.86 257.77-42.21 257.77-40.87L257.77-40.87Q257.77-40.38 257.68-39.92 257.6-39.45 257.49-38.99 257.38-38.53 257.29-38.05 257.21-37.57 257.18-37.08L257.18-37.08 257.18-5.08Q258.18-5.37 258.78-5.52 259.38-5.66 259.82-5.66L259.82-5.66Q262.38-5.66 262.38-2.98L262.38-2.98Q262.38-1.88 261.64-1.28 260.89-0.68 259.5-0.34L259.5-0.34 257.06 0.29Q256.23 0.56 255.77 0.63 255.3 0.71 254.77 0.71L254.77 0.71Q253.98 0.71 253.43 0.42 252.89 0.12 252.53-0.35 252.18-0.83 252.01-1.39 251.84-1.95 251.84-2.51ZM267.7-14.65L267.7-14.65Q267.7-17.97 268.83-20.83 269.95-23.68 271.91-25.78 273.88-27.88 276.53-29.08 279.18-30.27 282.25-30.27L282.25-30.27Q283.82-30.27 285.24-29.91 286.67-29.54 287.9-28.94 289.14-28.34 290.13-27.59 291.12-26.83 291.82-26.03L291.82-26.03Q291.8-26.37 291.8-26.76 291.8-27.15 291.8-27.44L291.8-27.44Q291.8-28.05 291.97-28.58 292.14-29.1 292.51-29.49 292.87-29.88 293.43-30.11 294-30.35 294.8-30.35L294.8-30.35Q295.49-30.35 296.03-30.09 296.58-29.83 296.97-29.46 297.37-29.08 297.58-28.65 297.8-28.22 297.8-27.88L297.8-27.88Q297.8-27.05 297.72-26.21 297.63-25.37 297.58-24.51L297.58-24.51Q297.58-21.83 297.55-19.76 297.51-17.7 297.46-15.97L297.46-15.97Q297.41-14.79 297.39-13.54 297.37-12.28 297.37-11.23L297.37-11.23Q297.37-8.86 297.37-7.47 297.37-6.08 297.49-5.44L297.49-5.44Q297.71-5.49 298.13-5.66 298.56-5.83 298.93-6.03L298.93-6.03Q299.27-6.15 299.61-6.27 299.95-6.4 300.47-6.4L300.47-6.4Q301.05-6.4 301.49-6.14 301.93-5.88 302.24-5.48 302.54-5.08 302.69-4.58 302.83-4.08 302.83-3.61L302.83-3.61Q302.83-2.95 302.52-2.28 302.2-1.61 301.34-1.32L301.34-1.32Q300.61-1.05 299.86-0.76 299.1-0.46 298.33-0.22 297.56 0.02 296.79 0.2 296.02 0.37 295.22 0.37L295.22 0.37Q294.26 0.37 293.65-0.02 293.04-0.42 292.7-1.04 292.36-1.66 292.21-2.42 292.07-3.17 292.04-3.91L292.04-3.91Q291.29-2.95 290.21-2.12 289.14-1.29 287.84-0.66 286.55-0.02 285.07 0.34 283.6 0.71 282.03 0.71L282.03 0.71Q278.86 0.71 276.22-0.45 273.59-1.61 271.69-3.67 269.8-5.74 268.75-8.54 267.7-11.35 267.7-14.65ZM273.32-14.65L273.32-14.65Q273.32-12.67 273.92-10.84 274.51-9.01 275.65-7.6 276.78-6.2 278.44-5.37 280.1-4.54 282.2-4.54L282.2-4.54Q284.28-4.54 285.96-5.35 287.65-6.15 288.91-7.45 290.16-8.74 290.97-10.34 291.77-11.94 292.07-13.55L292.07-13.55 292.07-15.7Q291.8-17.19 291.05-18.85 290.31-20.51 289.1-21.91 287.89-23.32 286.21-24.23 284.52-25.15 282.4-25.15L282.4-25.15Q280.4-25.15 278.74-24.33 277.08-23.51 275.87-22.08 274.66-20.65 273.99-18.75 273.32-16.85 273.32-14.65ZM307.27-2.12L307.27-2.12Q307.27-2.61 307.32-2.94 307.37-3.27 307.54-3.56 307.71-3.86 308.01-4.2 308.3-4.54 308.79-5.08L308.79-5.08Q309.25-5.59 309.92-6.34 310.6-7.08 311.51-8.19 312.43-9.3 313.62-10.86 314.82-12.43 316.36-14.55L316.36-14.55Q315.4-15.65 314.44-16.78 313.48-17.92 312.52-19.09L312.52-19.09Q311.5-20.39 310.46-21.66 309.42-22.92 308.37-24.12L308.37-24.12Q307.79-24.76 307.29-25.61 306.79-26.46 306.79-27.49L306.79-27.49Q306.79-28.03 307.04-28.5 307.3-28.98 307.7-29.32 308.1-29.66 308.62-29.87 309.13-30.08 309.62-30.08L309.62-30.08Q310.33-30.08 311.08-29.53 311.84-28.98 312.33-27.88L312.33-27.88 312.3-27.91 319.38-18.85 325.49-27.2 325.49-27.17Q325.76-27.64 326.05-28.15 326.34-28.66 326.75-29.09 327.15-29.52 327.67-29.8 328.2-30.08 328.91-30.08L328.91-30.08Q329.37-30.08 329.86-29.86 330.35-29.64 330.76-29.26 331.18-28.88 331.44-28.37 331.71-27.86 331.71-27.25L331.71-27.25Q331.71-26.76 331.4-26.11 331.08-25.46 330.63-24.79 330.18-24.12 329.69-23.51 329.2-22.9 328.88-22.51L328.88-22.51Q328.52-22.02 328.08-21.45 327.64-20.87 326.96-19.98 326.29-19.09 325.28-17.76 324.27-16.43 322.75-14.45L322.75-14.45Q324.44-12.35 325.67-10.89 326.9-9.42 327.89-8.34 328.88-7.25 329.72-6.37 330.57-5.49 331.47-4.57L331.47-4.57Q331.79-4.2 331.99-3.75 332.2-3.3 332.32-2.87 332.45-2.44 332.51-2.09 332.57-1.73 332.57-1.56L332.57-1.56Q332.57-0.46 331.91 0.12 331.25 0.71 329.66 0.71L329.66 0.71Q329.49 0.71 329.17 0.56 328.86 0.42 328.52 0.23 328.17 0.05 327.88-0.15 327.59-0.34 327.47-0.46L327.47-0.46Q326.73-1.32 326.21-1.98 325.68-2.64 325.23-3.23 324.78-3.83 324.33-4.47 323.88-5.1 323.27-5.92 322.66-6.74 321.8-7.81 320.95-8.89 319.7-10.38L319.7-10.38Q318.16-8.25 316.6-6.19 315.04-4.13 313.5-2L313.5-2Q313.38-1.64 313.13-1.16 312.89-0.68 312.52-0.27 312.16 0.15 311.63 0.43 311.11 0.71 310.4 0.71L310.4 0.71Q310.11 0.71 309.58 0.59 309.06 0.46 308.54 0.13 308.03-0.2 307.65-0.73 307.27-1.27 307.27-2.12ZM340.57 5.42L340.57 5.42Q340.57 5.03 340.73 4.54 340.89 4.05 341.24 3.63 341.6 3.2 342.16 2.91 342.72 2.61 343.53 2.61L343.53 2.61Q343.89 2.61 344.24 2.77 344.58 2.93 344.87 3.19 345.16 3.44 345.42 3.74 345.68 4.03 345.9 4.27L345.9 4.27Q346.63 5.18 347.41 5.71 348.19 6.25 349.03 6.53 349.87 6.81 350.8 6.9 351.73 6.98 352.76 6.98L352.76 6.98Q354.64 6.98 356.23 6.56 357.83 6.13 359.01 5.09 360.18 4.05 360.87 2.31 361.57 0.56 361.64-2.05L361.64-2.05Q361.64-2.1 361.63-2.15 361.62-2.2 361.62-2.25L361.62-2.25Q360.96-1.61 360.12-1.07 359.27-0.54 358.24-0.15 357.2 0.24 355.95 0.48 354.71 0.71 353.22 0.71L353.22 0.71Q350.31 0.71 347.68-0.07 345.04-0.85 343.04-2.64 341.04-4.42 339.85-7.26 338.67-10.11 338.67-14.26L338.67-14.26Q338.67-15.09 338.82-16.15 338.96-17.21 339.25-18.38 339.55-19.56 340-20.75 340.45-21.95 341.09-23.05L341.09-23.05Q340.96-23.02 340.85-23.02 340.74-23.02 340.62-23.02L340.62-23.02Q340.06-23.02 339.58-23.24 339.11-23.46 338.75-23.8 338.4-24.15 338.2-24.56 338.01-24.98 338.01-25.37L338.01-25.37Q338.01-26 338.2-26.5 338.4-27 338.88-27.4 339.35-27.81 340.13-28.11 340.91-28.42 342.09-28.66L342.09-28.66Q343.01-28.86 343.83-29.09 344.65-29.32 345.26-29.52L345.26-29.52Q346.07-29.76 346.69-29.92 347.31-30.08 347.95-30.08L347.95-30.08Q348.97-30.08 349.69-29.41 350.41-28.74 350.41-27.61L350.41-27.61Q350.41-27.05 350.2-26.43 350-25.81 349.31-25.32L349.31-25.32Q348.63-25.05 347.97-24.41 347.31-23.78 346.73-22.9 346.14-22.02 345.65-20.97 345.16-19.92 344.81-18.81 344.45-17.7 344.26-16.58 344.06-15.45 344.06-14.45L344.06-14.45Q344.06-11.67 344.81-9.75 345.55-7.84 346.8-6.65 348.04-5.47 349.68-4.96 351.32-4.44 353.12-4.44L353.12-4.44Q356.3-4.44 358.33-5.43 360.37-6.42 361.57-8.45L361.57-8.45 361.57-9.01 361.57-23.85Q361.2-23.73 360.79-23.61 360.37-23.49 359.97-23.39 359.57-23.29 359.23-23.23 358.88-23.17 358.66-23.17L358.66-23.17Q358.15-23.17 357.65-23.29 357.15-23.41 356.75-23.69 356.34-23.97 356.09-24.44 355.83-24.9 355.83-25.61L355.83-25.61Q355.83-26.78 356.44-27.5 357.05-28.22 358.42-28.44L358.42-28.44 362.2-29.52 362.18-29.49Q362.69-29.76 363.35-29.92 364.01-30.08 364.38-30.08L364.38-30.08Q364.65-30.08 365.1-30.03 365.55-29.98 365.98-29.72 366.4-29.47 366.72-28.88 367.04-28.3 367.04-27.25L367.04-27.25Q367.04-26.95 367.01-26.66 366.99-26.37 366.94-26.15L366.94-26.15Q366.94-26.15 366.94-26.05 366.94-25.95 366.93-25.39 366.92-24.83 366.92-23.63 366.92-22.44 366.9-20.24 366.89-18.04 366.87-14.66 366.84-11.28 366.82-6.35L366.82-6.35Q366.82-5.27 366.89-4.19 366.96-3.1 366.96-1.76L366.96-1.76Q366.96 2.32 365.9 5.02 364.84 7.71 362.92 9.3 361.01 10.89 358.35 11.54 355.69 12.18 352.51 12.18L352.51 12.18Q350.22 12.18 348.07 11.68 345.92 11.18 344.25 10.28 342.58 9.38 341.57 8.13 340.57 6.88 340.57 5.42ZM403.02-2.44L403.02-2.44Q402.09-4.98 401.09-7.76 400.09-10.55 399.05-13.34 398.01-16.14 397-18.87 395.99-21.61 395.07-24.08 394.16-26.56 393.35-28.69 392.55-30.81 391.94-32.4L391.94-32.4Q391.62-33.2 391.36-34.06 391.11-34.91 391.11-35.67L391.11-35.67Q391.11-38.33 394.08-38.33L394.08-38.33Q394.43-38.33 394.76-38.27 395.08-38.21 395.41-37.96 395.74-37.72 396.05-37.27 396.35-36.82 396.65-36.01L396.65-36.01Q398.55-30.69 399.99-26.61 401.43-22.53 402.54-19.36 403.65-16.19 404.47-13.75 405.29-11.3 405.95-9.28L405.95-9.28Q406.63-11.28 407.24-13.06 407.85-14.84 408.44-16.56 409.03-18.29 409.64-20.01 410.25-21.73 410.95-23.61L410.95-23.61Q410.76-23.97 410.5-24.66 410.25-25.34 409.95-26.17 409.66-27 409.34-27.91 409.03-28.81 408.72-29.65 408.41-30.49 408.16-31.16 407.9-31.84 407.71-32.23L407.71-32.23Q407.27-33.01 406.95-33.81 406.63-34.62 406.63-35.25L406.63-35.25Q406.63-36.84 407.29-37.51 407.95-38.18 409.56-38.18L409.56-38.18Q410.1-38.18 410.53-37.94 410.95-37.7 411.37-37 411.78-36.3 412.28-35.08 412.78-33.86 413.52-31.91L413.52-31.91Q413.69-31.49 413.85-30.83 414.01-30.18 414.18-29.74L414.18-29.74Q414.42-30.25 414.68-30.96 414.93-31.67 415.19-32.43 415.45-33.2 415.68-33.98 415.91-34.77 416.11-35.45L416.11-35.45Q416.2-35.91 416.39-36.43 416.57-36.94 416.9-37.37 417.23-37.79 417.75-38.07 418.28-38.35 419.11-38.35L419.11-38.35Q420.35-38.35 421.09-37.56 421.82-36.77 421.82-35.45L421.82-35.45Q421.82-34.77 421.53-34.02 421.23-33.28 420.84-32.52L420.84-32.52Q419.79-30.37 418.91-28.37 418.03-26.37 417.18-24.17L417.18-24.17Q417.74-22.71 418.29-21.22 418.84-19.73 419.46-17.97 420.08-16.21 420.84-14.06 421.6-11.91 422.57-9.13L422.57-9.13Q423.7-12.33 424.72-15.52 425.75-18.7 426.79-21.89 427.82-25.07 428.9-28.23 429.97-31.4 431.19-34.55L431.19-34.55 431.19-34.52Q431.34-35.25 431.57-35.94 431.8-36.62 432.17-37.13 432.54-37.65 433.09-37.95 433.63-38.26 434.42-38.26L434.42-38.26Q435.81-38.26 436.53-37.55 437.25-36.84 437.25-35.6L437.25-35.6Q437.25-35.16 437.2-34.79 437.15-34.42 437.06-34.07 436.98-33.72 436.83-33.34 436.69-32.96 436.49-32.5L436.49-32.5Q434.98-28.71 433.67-25.18 432.36-21.66 431.08-18.05 429.8-14.45 428.48-10.6 427.16-6.74 425.63-2.29L425.63-2.29Q425.68-2.17 425.65-2.1 425.63-2.03 425.63-1.9L425.63-1.9Q425.63-1.37 425.42-0.89 425.21-0.42 424.81-0.05 424.41 0.32 423.78 0.52 423.16 0.73 422.33 0.73L422.33 0.73Q421.67 0.73 421.26 0.52 420.84 0.32 420.59-0.01 420.33-0.34 420.17-0.76 420.01-1.17 419.91-1.59L419.91-1.59 419.91-1.56Q419.38-3.27 418.84-4.68 418.3-6.08 417.74-7.59L417.74-7.59Q416.86-10.03 415.97-12.68 415.08-15.33 414.15-17.82L414.15-17.82Q413.64-16.38 413.03-14.48 412.42-12.57 411.74-10.49 411.05-8.4 410.32-6.27 409.59-4.15 408.88-2.25L408.88-2.25Q408.93-2.03 408.93-1.81 408.93-1.59 408.93-1.51L408.93-1.51Q408.93-0.95 408.67-0.54 408.41-0.12 407.99 0.16 407.56 0.44 407 0.59 406.44 0.73 405.85 0.73L405.85 0.73Q405.02 0.73 404.51 0.4 404 0.07 403.69-0.42 403.39-0.9 403.24-1.45 403.09-2 403.02-2.44ZM441.2-14.72L441.2-14.72Q441.2-17.9 442.38-20.69 443.57-23.49 445.63-25.57 447.69-27.66 450.45-28.87 453.21-30.08 456.36-30.08L456.36-30.08Q459.8-30.08 462.6-28.87 465.39-27.66 467.38-25.57 469.37-23.49 470.45-20.69 471.52-17.9 471.52-14.72L471.52-14.72Q471.52-12.4 470.97-10.35 470.42-8.3 469.42-6.59 468.42-4.88 467.02-3.53 465.61-2.17 463.93-1.23 462.25-0.29 460.33 0.21 458.41 0.71 456.36 0.71L456.36 0.71Q453.29 0.71 450.53-0.4 447.77-1.51 445.69-3.53 443.62-5.54 442.41-8.39 441.2-11.23 441.2-14.72ZM446.84-14.72L446.84-14.72Q446.84-12.4 447.5-10.52 448.16-8.64 449.39-7.31 450.62-5.98 452.38-5.26 454.14-4.54 456.34-4.54L456.34-4.54Q458.29-4.54 460.02-5.2 461.76-5.86 463.06-7.14 464.37-8.42 465.14-10.33 465.91-12.23 465.91-14.72L465.91-14.72Q465.91-16.77 465.26-18.62 464.61-20.46 463.39-21.83 462.17-23.19 460.39-24 458.61-24.8 456.34-24.8L456.34-24.8Q454.07-24.8 452.31-24 450.55-23.19 449.33-21.83 448.11-20.46 447.47-18.62 446.84-16.77 446.84-14.72ZM479.41-2.17L479.41-2.17Q479.41-3.03 479.43-3.88 479.45-4.74 479.48-5.76L479.48-5.76 479.48-24.58Q479.48-25.27 479.33-25.96 479.19-26.66 479.19-27.42L479.19-27.42Q479.19-28.71 480.11-29.39 481.04-30.08 482.63-30.08L482.63-30.08Q483.31-30.08 483.82-29.85 484.34-29.61 484.68-29.25 485.02-28.88 485.19-28.42 485.36-27.95 485.36-27.47L485.36-27.47Q485.36-27.05 485.3-26.62 485.24-26.2 485.17-25.78L485.17-25.78Q488.9-26.71 491.53-27.47 494.15-28.22 495.64-28.71L495.64-28.71Q495.96-29.27 496.53-29.68 497.11-30.08 498.03-30.08L498.03-30.08Q499.38-30.08 500.17-29.38 500.96-28.69 500.96-27.64L500.96-27.64Q500.96-27.22 500.91-26.78 500.87-26.34 500.87-25.9L500.87-25.9Q500.72-24.41 500.8-22.88 500.89-21.34 501.01-19.78L501.01-19.78Q501.06-19.29 501.07-18.74 501.09-18.19 501.09-17.63L501.09-17.63Q501.09-17.04 500.79-16.65 500.5-16.26 500.05-16.03 499.6-15.8 499.06-15.7 498.52-15.6 498.01-15.6L498.01-15.6Q497.28-15.6 496.79-15.86 496.3-16.11 496-16.52 495.69-16.92 495.56-17.42 495.42-17.92 495.42-18.41L495.42-18.41Q495.42-19.53 495.45-20.69 495.47-21.85 495.49-23.24L495.49-23.24Q494.57-23.02 492.94-22.66 491.32-22.29 489.39-21.88L489.39-21.88Q488.29-21.61 487.22-21.37 486.14-21.14 485.05-20.9L485.05-20.9 485.05-4.96 485.78-5.18Q486.27-5.35 486.71-5.48 487.15-5.62 487.71-5.66L487.71-5.66Q488.17-5.62 488.62-5.44 489.07-5.27 489.43-4.96 489.78-4.64 490-4.16 490.22-3.69 490.22-3.08L490.22-3.08Q490.22-2.51 490.04-2 489.86-1.49 489.54-1.09 489.22-0.68 488.79-0.43 488.37-0.17 487.85-0.15L487.85-0.15Q487.51-0.1 486.93 0.01 486.34 0.12 485.56 0.27L485.56 0.27Q484.31 0.51 483.54 0.61 482.78 0.71 482.26 0.71L482.26 0.71Q481.7 0.71 481.18 0.52 480.65 0.34 480.26-0.02 479.87-0.39 479.64-0.93 479.41-1.46 479.41-2.17ZM510.95-2.51L510.95-2.51Q510.95-4.03 511.02-5.71L511.02-5.71Q511.07-6.59 511.09-7.7 511.12-8.81 511.12-9.91L511.12-9.91Q511.12-10.64 511.11-12.24 511.09-13.84 511.08-16.04 511.07-18.24 511.03-20.92 511-23.61 510.96-26.53 510.92-29.44 510.89-32.47 510.85-35.5 510.8-38.4L510.8-38.4Q509.85-38.38 508.87-38.29 507.89-38.21 506.87-38.21L506.87-38.21Q506.43-38.21 505.98-38.35 505.53-38.5 505.16-38.81 504.79-39.11 504.55-39.62 504.31-40.14 504.31-40.87L504.31-40.87Q504.31-42.16 505-42.83 505.7-43.51 506.63-43.51L506.63-43.51Q507.48-43.51 508.31-43.41 509.14-43.31 510.07-43.31L510.07-43.31Q510.75-43.31 511.26-43.33 511.78-43.36 512.25-43.4 512.73-43.43 513.27-43.47 513.8-43.51 514.56-43.51L514.56-43.51Q515.59-43.51 516.23-42.86 516.88-42.21 516.88-40.87L516.88-40.87Q516.88-40.38 516.79-39.92 516.71-39.45 516.6-38.99 516.49-38.53 516.4-38.05 516.32-37.57 516.29-37.08L516.29-37.08 516.29-5.08Q517.29-5.37 517.89-5.52 518.49-5.66 518.93-5.66L518.93-5.66Q521.49-5.66 521.49-2.98L521.49-2.98Q521.49-1.88 520.75-1.28 520-0.68 518.61-0.34L518.61-0.34 516.17 0.29Q515.34 0.56 514.88 0.63 514.41 0.71 513.88 0.71L513.88 0.71Q513.09 0.71 512.55 0.42 512 0.12 511.64-0.35 511.29-0.83 511.12-1.39 510.95-1.95 510.95-2.51ZM526.94-14.65L526.94-14.65Q526.94-17.97 528.05-20.79 529.16-23.61 531.12-25.67 533.09-27.73 535.77-28.91 538.46-30.08 541.61-30.08L541.61-30.08Q543.02-30.08 544.42-29.8 545.81-29.52 547.06-28.97 548.32-28.42 549.4-27.61 550.47-26.81 551.28-25.76L551.28-25.76Q551.28-26.39 551.28-27.56 551.28-28.74 551.26-30.35 551.25-31.96 551.23-33.94 551.2-35.91 551.18-38.13L551.18-38.13 549.1-38.13Q548.54-38.13 548-38.01 547.47-37.89 546.86-37.89L546.86-37.89Q546.42-37.89 545.97-38.1 545.51-38.31 545.16-38.68 544.81-39.06 544.57-39.61 544.34-40.16 544.34-40.87L544.34-40.87Q544.34-42.14 545-42.82 545.66-43.51 546.66-43.51L546.66-43.51Q546.91-43.51 547.25-43.49 547.59-43.48 548.03-43.36L548.03-43.36Q549.64-43.33 551.28-43.4 552.91-43.46 554.79-43.48L554.79-43.48Q555.82-43.48 556.4-42.77 556.99-42.07 556.99-40.89L556.99-40.89Q556.99-40.06 556.77-39.6L556.77-39.6Q556.72-38.01 556.7-35.68 556.67-33.35 556.65-30.71 556.62-28.08 556.61-25.34 556.6-22.61 556.59-20.23 556.57-17.85 556.57-16.02 556.57-14.18 556.57-13.35L556.57-13.35Q556.57-10.96 556.61-9.05 556.65-7.13 556.74-6.03L556.74-6.03 557.18-6.3Q557.7-6.59 558.17-6.81 558.65-7.03 559.21-7.08L559.21-7.08Q559.63-7.13 560.06-6.99 560.5-6.86 560.87-6.56 561.24-6.25 561.48-5.74 561.73-5.22 561.73-4.49L561.73-4.49Q561.73-3.47 561.18-2.84 560.63-2.22 560.04-1.98L560.04-1.98Q559.45-1.71 558.92-1.43 558.38-1.15 557.82-0.85L557.82-0.85Q556.99-0.42 556.22-0.02 555.45 0.37 554.86 0.37L554.86 0.37Q553.69 0.37 552.97-0.74 552.25-1.86 551.89-3.71L551.89-3.71Q550.91-2.71 549.66-1.9 548.42-1.1 547-0.51 545.59 0.07 544.04 0.39 542.49 0.71 540.92 0.71L540.92 0.71Q537.75 0.71 535.17-0.49 532.6-1.68 530.77-3.76 528.94-5.83 527.94-8.63 526.94-11.43 526.94-14.65ZM532.38-14.65L532.38-14.65Q532.38-12.72 532.99-10.9 533.6-9.08 534.76-7.67 535.92-6.25 537.58-5.4 539.24-4.54 541.34-4.54L541.34-4.54Q542.95-4.54 544.56-5.07 546.17-5.59 547.53-6.56 548.88-7.52 549.88-8.9 550.89-10.28 551.25-12.01L551.25-12.01Q551.25-13.01 551.25-13.65 551.25-14.28 551.24-14.73 551.23-15.19 551.23-15.56 551.23-15.94 551.23-16.43L551.23-16.43Q550.84-18.19 549.97-19.71 549.1-21.24 547.86-22.36 546.61-23.49 545.06-24.13 543.51-24.78 541.78-24.78L541.78-24.78Q539.75-24.78 538.03-24.05 536.31-23.32 535.05-21.98 533.8-20.65 533.09-18.79 532.38-16.92 532.38-14.65ZM589.06-12.33L589.06-12.33Q588.55-12.33 588.09-12.48 587.62-12.62 587.27-12.94 586.92-13.26 586.7-13.71 586.48-14.16 586.48-14.79L586.48-14.79Q586.48-15.36 586.55-15.91 586.62-16.46 586.62-17.07L586.62-17.07Q586.62-20.36 586.52-23.66 586.43-26.95 586.32-30.29 586.21-33.62 586.12-37 586.04-40.38 586.04-43.82L586.04-43.82Q586.04-44.34 586.21-44.8 586.38-45.26 586.74-45.62 587.11-45.97 587.71-46.18 588.31-46.39 589.16-46.39L589.16-46.39Q589.67-46.39 590.17-46.24 590.68-46.09 591.08-45.78 591.48-45.46 591.74-44.95 591.99-44.43 591.99-43.68L591.99-43.68Q591.99-42.6 591.97-40.86 591.94-39.11 591.92-36.93 591.9-34.74 591.85-32.23 591.8-29.71 591.77-27.1 591.75-24.49 591.72-21.9 591.7-19.31 591.7-16.99L591.7-16.99Q591.7-16.46 591.8-15.92 591.9-15.38 591.9-14.67L591.9-14.67Q591.9-13.53 591.11-12.93 590.33-12.33 589.06-12.33ZM585.91-2.1L585.91-2.1Q585.94-3.44 586.09-4.43 586.23-5.42 586.56-6.07 586.89-6.71 587.45-7.03 588.01-7.35 588.87-7.35L588.87-7.35Q590.11-7.35 590.99-6.64 591.87-5.93 591.87-4.54L591.87-4.54Q591.87-3.27 591.62-2.28 591.36-1.29 590.92-0.62 590.48 0.05 589.89 0.4 589.31 0.76 588.62 0.76L588.62 0.76Q587.97 0.76 587.45 0.46 586.94 0.17 586.6-0.26 586.26-0.68 586.09-1.18 585.91-1.68 585.91-2.1Z" opacity="1" transform="matrix(1,0,0,1,0,0)" fill="#000000" class="slogan-text-1" data-fill-palette-color="secondary" id="text-1"></path></svg></g></svg></g></svg></g></svg></g><g transform="matrix(1,0,0,1,170.31012430510995,0)"><svg viewBox="0 0 97.88620593321615 78.73455694628254" height="78.73455694628254" width="97.88620593321615"><g><svg xmlns="http://www.w3.org/2000/svg" xmlns:xlink="http://www.w3.org/1999/xlink" version="1.1" x="0" y="0" viewBox="3.6 11.7 82.80000000000001 66.6" enable-background="new 0 0 90 90" xml:space="preserve" height="78.73455694628254" width="97.88620593321615" class="icon-icon-0" data-fill-palette-color="accent" id="icon-0"><path fill="#000000" d="M78.7 30.9H83.5V31.7H78.7zM78.7 33.7H83.5V32.9H78.7zM78.7 35.6H83.5V34.8H78.7zM86.4 29.3V56C86.4 57 85.6 57.9 84.5 57.9H77.6C77.4 57.9 77.2 57.9 77 57.8V78.3H52.2V74.6C52.3 71.3 55 68.7 58.2 68.7H58.3V52L51.5 54.8 51.1 53.8C50.7 53.9 50.4 53.9 50 53.9 47.7 53.9 45.7 52.6 44.9 50.5L44.7 49.9 48.9 48.2 48.4 47.1 58.3 43V41.8C58.3 39.9 58.8 38.1 59.8 36.6 59.6 36.5 59.5 36.4 59.3 36.3L59.1 36.2 59 36.1C58.9 36 58.8 36 58.7 35.9 58.3 35.6 57.8 35.3 57.5 34.9L57.4 34.8C56 33.5 54.8 32 54.1 30.2V30.1C54 29.9 54 29.8 53.9 29.6 53.9 29.5 53.8 29.5 53.8 29.4 53.7 29.3 53.7 29.1 53.6 28.9 53.6 28.8 53.5 28.7 53.5 28.6 53.4 28.4 53.4 28.2 53.3 28 53.3 27.8 53.2 27.7 53.2 27.5 53.2 27.4 53.2 27.3 53.1 27.2 53.1 27 53 26.9 53 26.7V26.4C53 26.2 53 26.1 52.9 25.9V23.2C52.9 23.1 52.9 22.9 53 22.8V22.7C53.2 21.8 53.4 20.9 53.8 20.1V20C53.9 19.9 53.9 19.7 54 19.6 54 19.5 54.1 19.5 54.1 19.4 54.2 19.3 54.2 19.2 54.3 19.1 54.3 19 54.4 18.9 54.4 18.8S54.5 18.6 54.5 18.6C54.6 18.5 54.7 18.3 54.8 18.2V18.1C55.1 17.6 55.5 17.1 55.9 16.6L56.1 16.4C58.6 13.5 62.3 11.7 66.5 11.7 74 11.7 80.1 17.7 80.1 25 80.1 25.8 80 26.6 79.9 27.3H84.8C85.6 27.4 86.4 28.2 86.4 29.3M67.9 24.7C67.9 22.2 67.2 20.9 66.7 20.3 66.7 20.3 66.6 20.2 66.6 20.1L66.5 20C65.9 19.4 63.5 17.6 57.5 17.6H56.5C56.3 17.8 56.2 18 56 18.2V18.3C55.9 18.4 55.8 18.6 55.7 18.7 55.7 18.7 55.7 18.8 55.6 18.8 55.5 18.9 55.5 19 55.4 19.1 55.4 19.2 55.3 19.2 55.3 19.3S55.2 19.4 55.2 19.5C55.1 19.7 55 20 54.9 20.2 54.8 20.3 54.8 20.5 54.7 20.6S54.6 20.9 54.5 21C54.3 21.6 54.1 22.2 54 22.9V23C54 23.1 54 23.2 53.9 23.4V26.7C53.9 26.8 53.9 27 54 27.1V27.4C54 27.5 54.1 27.7 54.1 27.8S54.1 28 54.2 28.1C54.2 28.3 54.3 28.4 54.3 28.6 54.4 28.8 54.4 28.9 54.5 29.1 54.5 29.2 54.5 29.2 54.6 29.3S54.7 29.6 54.8 29.7C54.8 29.7 54.8 29.8 54.9 29.8 55 30 55 30.1 55.1 30.3 55.8 31.7 56.7 32.9 57.9 33.9 57.9 33.9 58 33.9 58 34L58.3 34.3 58.5 34.5C58.6 34.6 58.7 34.7 58.8 34.7 58.9 34.8 59 34.9 59.1 34.9S59.2 35 59.3 35C64.2 34.1 67.9 29.7 67.9 24.7M59.3 42.5L64.8 40.3C65.3 40.1 65.8 40 66.4 40 68.1 40 69.6 41 70.3 42.6 70.7 43.6 70.7 44.8 70.3 45.8S69.1 47.6 68 48L59.4 51.5V68.8C59.7 68.9 60 68.9 60.2 69.1 60.9 68.8 61.6 68.7 62.3 68.7H62.4V58.7H63.8V68.9C66.2 69.5 68 71.6 68.2 74.2H75.8V41.5C75.7 39.5 75 37.7 73.8 36.1 71.7 37.5 69.1 38.3 66.4 38.3 64.4 38.3 62.5 37.9 60.8 37.1 59.9 38.5 59.4 40.1 59.4 41.8V42.5zM75.7 37V34.6C75.4 34.9 75 35.2 74.7 35.5 75.1 36 75.4 36.5 75.7 37M63.7 70.2C63.5 70.1 63.3 70.1 63 70 62.8 70 62.6 69.9 62.3 69.9H61.6C61.1 70 60.6 70.1 60.1 70.4 58.7 71.1 57.7 72.5 57.5 74.2H66.9C66.7 72.3 65.4 70.8 63.7 70.2M50.4 52.6L49.1 49.4 46.1 50.6C46.9 51.9 48.2 52.7 49.8 52.7 50 52.7 50.2 52.6 50.4 52.6M67.5 46.9C68.2 46.6 68.8 46 69.1 45.3S69.4 43.8 69.1 43.1C68.6 42 67.6 41.3 66.4 41.3 66 41.3 65.6 41.4 65.3 41.5L50 47.7 52.2 53.1zM56.1 75.5H53.5V77H56.1zM56.3 74.2C56.5 72.5 57.3 71 58.6 69.9H58C55.6 69.9 53.6 71.8 53.3 74.2zM75.8 75.5H57.6V77H75.8zM78.6 25.1C78.6 18.5 73.1 13.1 66.2 13.1 62.9 13.1 59.8 14.4 57.6 16.5 63.8 16.5 66.4 18.5 67.3 19.3L67.4 19.4C67.5 19.5 67.6 19.6 67.6 19.7 68.3 20.5 69.1 22.1 69.1 24.8 69.1 30.1 65.8 34.5 60.9 36 62.5 36.7 64.3 37.2 66.2 37.2 73.1 37.1 78.6 31.7 78.6 25.1M85.1 29.3C85.1 29 84.8 28.7 84.5 28.7H79.3C78.8 30.4 78 31.9 76.9 33.2V56C76.9 56.3 77.2 56.6 77.5 56.6H84.4C84.7 56.6 85 56.3 85 56V29.3zM11.3 31.8H6.5V31H11.3zM11.3 32.9H6.5V33.7H11.3zM11.3 34.8H6.5V35.6H11.3zM5.5 27.4H10.4C10.3 26.6 10.2 25.9 10.2 25.1 10.2 17.8 16.3 11.8 23.8 11.8 28 11.8 31.7 13.6 34.2 16.5L34.4 16.7C34.8 17.2 35.1 17.7 35.5 18.2V18.3C35.6 18.4 35.7 18.6 35.8 18.7 35.8 18.8 35.9 18.9 35.9 18.9 35.9 19 36 19.1 36 19.2 36.1 19.3 36.1 19.4 36.2 19.5 36.2 19.6 36.3 19.6 36.3 19.7 36.4 19.8 36.4 20 36.5 20.1V20.2C36.8 21 37.1 21.9 37.3 22.8V22.9C37.3 23 37.3 23.2 37.4 23.3V26C37.4 26.2 37.4 26.3 37.3 26.5V26.8C37.3 27 37.3 27.1 37.2 27.3 37.2 27.4 37.2 27.5 37.1 27.6 37.1 27.8 37 27.9 37 28.1S36.9 28.5 36.8 28.7C36.8 28.8 36.7 28.9 36.7 29 36.7 29.2 36.6 29.3 36.5 29.5 36.5 29.6 36.4 29.6 36.4 29.7 36.3 29.9 36.3 30 36.2 30.2V30.3C35.4 32 34.3 33.6 32.9 34.9L32.8 35C32.4 35.3 32 35.7 31.6 36 31.5 36.1 31.4 36.2 31.3 36.2L31.2 36.3 31 36.4C30.8 36.5 30.7 36.6 30.5 36.7 31.4 38.3 32 40 32 41.9V43L41.9 47.1 41.4 48.2 45.6 49.9 45.4 50.5C44.6 52.6 42.6 53.9 40.3 53.9 39.9 53.9 39.6 53.9 39.2 53.8L38.8 54.8 31.9 52V68.7H32C35.2 68.7 37.8 71.3 38 74.6V78.3H13V57.7C12.8 57.8 12.6 57.8 12.4 57.8H5.5C4.5 57.8 3.6 57 3.6 55.9V29.3C3.6 28.2 4.4 27.4 5.5 27.4M30.6 35C30.7 35 30.7 34.9 30.8 34.9 30.9 34.8 31 34.7 31.1 34.7 31.2 34.6 31.3 34.5 31.4 34.5S31.5 34.4 31.6 34.3L31.9 34S32 34 32 33.9C33.1 32.9 34.1 31.6 34.8 30.3 34.9 30.1 34.9 30 35 29.8 35 29.8 35 29.7 35.1 29.7 35.2 29.6 35.2 29.4 35.3 29.3 35.3 29.2 35.3 29.2 35.4 29.1 35.5 28.9 35.5 28.8 35.6 28.6S35.7 28.3 35.7 28.1C35.7 28 35.7 27.9 35.8 27.8 35.8 27.7 35.9 27.5 35.9 27.4V27.1C35.9 27 35.9 26.8 36 26.7V23.4C36 23.3 36 23.2 35.9 23V22.9C35.8 22.3 35.6 21.6 35.4 21 35.3 20.8 35.3 20.7 35.2 20.6S35.1 20.3 35 20.2C34.9 20 34.8 19.7 34.7 19.5 34.7 19.4 34.6 19.4 34.6 19.3S34.5 19.2 34.5 19.1C34.4 19 34.4 18.9 34.3 18.8 34.3 18.8 34.3 18.7 34.2 18.7 34.1 18.6 34 18.4 33.9 18.3V18.2C33.8 18 33.6 17.8 33.4 17.6H32.4C26.4 17.6 24 19.5 23.4 20L23.3 20.1C23.2 20.2 23.2 20.2 23.2 20.3 22.8 20.8 22 22.1 22 24.7 22.1 29.7 25.8 34.1 30.6 35M30.7 41.9C30.7 40.2 30.2 38.6 29.3 37.2 27.6 38 25.7 38.4 23.7 38.4 21 38.4 18.4 37.6 16.3 36.2 15.1 37.7 14.3 39.6 14.3 41.6V74.2H21.9C22.1 71.6 24 69.5 26.3 68.9V58.7H27.7V68.7H27.8C28.5 68.7 29.3 68.8 29.9 69.1 30.2 69 30.4 68.9 30.7 68.8V51.5L22.1 48C21.1 47.6 20.3 46.8 19.8 45.8 19.4 44.8 19.4 43.6 19.8 42.6 20.4 41 22 40 23.7 40 24.2 40 24.8 40.1 25.3 40.3L30.8 42.5V41.9zM15.3 35.5C14.9 35.2 14.6 34.9 14.3 34.6V37C14.6 36.5 14.9 36 15.3 35.5M23.1 74.2H32.5C32.3 72.5 31.3 71.1 29.9 70.4 29.4 70.2 28.9 70 28.4 69.9H27.7C27.5 69.9 27.2 69.9 27 70 26.8 70 26.5 70.1 26.3 70.2 24.6 70.8 23.3 72.3 23.1 74.2M40.2 52.7C41.7 52.7 43.1 51.9 43.9 50.6L40.9 49.4 39.6 52.6C39.8 52.6 40 52.7 40.2 52.7M37.8 53.1L40 47.7 24.7 41.5C24.3 41.4 24 41.3 23.6 41.3 22.4 41.3 21.3 42 20.9 43.1 20.6 43.8 20.6 44.6 20.9 45.3S21.8 46.6 22.5 46.9zM33.9 77H36.5V75.4H33.9zM36.7 74.2C36.4 71.8 34.4 69.9 32 69.9H31.4C32.7 70.9 33.5 72.4 33.7 74.2zM14.2 77H32.4V75.4H14.2zM23.7 37.1C25.6 37.1 27.4 36.7 29 35.9 24.2 34.4 20.8 29.9 20.8 24.7 20.8 21.9 21.6 20.4 22.3 19.6 22.3 19.6 22.4 19.5 22.5 19.3L22.6 19.2C23.5 18.4 26.2 16.4 32.3 16.4 30.1 14.3 27 13 23.7 13 16.9 13 11.3 18.4 11.3 25S16.9 37.1 23.7 37.1M4.9 56C4.9 56.3 5.2 56.6 5.5 56.6H12.4C12.7 56.6 13 56.3 13 56V33.2C11.9 31.9 11.1 30.3 10.6 28.7H5.5C5.2 28.7 4.9 29 4.9 29.3z" data-fill-palette-color="accent"></path></svg></g></svg></g></svg></g></svg></g><g id="text-0"><path d="M21.973 109.322l-17.822-6.091c-0.625-0.214-1.181-0.503-1.668-0.869-0.487-0.366-0.88-0.767-1.18-1.204-0.306-0.439-0.504-0.899-0.596-1.379-0.092-0.48-0.06-0.949 0.097-1.408v0l4.827-14.122 2.983 1.019-4.52 13.224 20.729 7.085 3.101-9.074-12.554-4.291 1.432-4.188 17.646 6.075c0.599 0.205 1.137 0.485 1.614 0.839 0.479 0.349 0.871 0.743 1.176 1.182 0.308 0.433 0.511 0.89 0.61 1.372 0.101 0.476 0.075 0.937-0.078 1.383v0l-0.304 0.889-6.502-2.222-3.408 9.973c-0.157 0.459-0.422 0.849-0.795 1.169-0.373 0.321-0.812 0.563-1.316 0.725-0.498 0.165-1.048 0.243-1.65 0.237-0.603-0.007-1.21-0.115-1.822-0.324z" fill="#000000" data-fill-palette-color="accent"></path><path d="M54.478 55.658l-6.26-7.263c-0.488-0.566-0.867-1.16-1.136-1.783-0.264-0.626-0.415-1.234-0.453-1.824-0.032-0.595 0.05-1.155 0.247-1.68 0.197-0.525 0.512-0.975 0.945-1.348v0l9.521-8.207 10.687 12.398 3.069-2.645c0.25 0.362 0.429 0.755 0.536 1.179 0.112 0.419 0.151 0.835 0.115 1.248-0.035 0.403-0.14 0.792-0.315 1.166-0.171 0.369-0.412 0.688-0.723 0.956v0l-1.515 1.306c-0.459 0.396-1.032 0.614-1.718 0.654-0.691 0.044-1.403-0.085-2.135-0.388v0c0.186 0.773 0.209 1.496 0.068 2.169-0.141 0.673-0.443 1.209-0.907 1.609v0l-4.278 3.688c-0.367 0.317-0.798 0.524-1.293 0.621-0.494 0.097-1 0.088-1.517-0.027-0.512-0.11-1.027-0.32-1.544-0.63-0.507-0.31-0.972-0.71-1.394-1.199zM58.815 53.894l5.854-5.047-8.589-9.964-5.855 5.047z" fill="#000000" data-fill-palette-color="accent"></path><path d="M108.175 25.288l-6.118-24.196 4.32-1.092 6.497 25.695 3.86-0.976c0.044 0.503 0.016 0.972-0.082 1.407-0.105 0.436-0.264 0.824-0.478 1.163-0.213 0.339-0.482 0.622-0.806 0.85-0.318 0.226-0.67 0.388-1.055 0.486v0l-1.528 0.386c-0.47 0.119-0.945 0.11-1.424-0.026-0.486-0.134-0.938-0.371-1.357-0.709-0.417-0.332-0.788-0.753-1.111-1.262-0.317-0.511-0.556-1.086-0.718-1.726z" fill="#000000" data-fill-palette-color="accent"></path><path d="M158.051 23.004l2.007-9.377c0.157-0.731 0.401-1.392 0.734-1.981 0.34-0.589 0.733-1.076 1.181-1.463 0.454-0.385 0.95-0.658 1.488-0.818 0.537-0.161 1.086-0.181 1.646-0.061v0l12.291 2.631-3.427 16.006 3.963 0.848c-0.138 0.418-0.343 0.798-0.616 1.14-0.266 0.343-0.575 0.624-0.925 0.845-0.342 0.216-0.716 0.367-1.12 0.453-0.398 0.087-0.797 0.088-1.199 0.002v0l-1.957-0.419c-0.593-0.127-1.112-0.452-1.558-0.975-0.453-0.524-0.78-1.169-0.981-1.935v0c-0.504 0.615-1.066 1.07-1.687 1.364-0.621 0.294-1.231 0.377-1.83 0.249v0l-5.523-1.182c-0.474-0.102-0.899-0.32-1.276-0.655-0.376-0.335-0.674-0.744-0.895-1.225-0.222-0.475-0.366-1.012-0.43-1.611-0.059-0.591-0.021-1.203 0.114-1.836zM162.075 25.395l7.559 1.618 2.754-12.865-7.559-1.618z" fill="#000000" data-fill-palette-color="accent"></path><path d="M209.056 49.037l12.779-2.431 0.908-11.552 3.27 2.891-0.428 7.943 7.755-1.464 3.27 2.891-11.221 2.258-0.479 9.22 1.991 1.761c-0.33 0.292-0.693 0.52-1.089 0.682-0.391 0.167-0.788 0.266-1.192 0.295-0.394 0.029-0.788-0.014-1.182-0.128-0.389-0.11-0.732-0.296-1.029-0.559v0l-1.552-1.372 0.694-9.098-8.945 1.802z" fill="#000000" data-fill-palette-color="accent"></path><path d="M250.689 94.034l13.834-5.265 1.585 4.165-15.279 5.815 2.734 7.186 15.28-5.814 1.585 4.164-15.28 5.815 1.344 3.532c-0.428 0.105-0.86 0.136-1.294 0.093-0.432-0.037-0.836-0.143-1.213-0.317-0.367-0.17-0.696-0.398-0.985-0.685-0.292-0.293-0.51-0.631-0.656-1.015v0l-0.18-0.472-4.967 1.89c-0.617 0.235-1.229 0.37-1.835 0.406-0.609 0.03-1.172-0.03-1.69-0.178-0.512-0.151-0.964-0.383-1.356-0.695-0.39-0.306-0.673-0.688-0.847-1.148v0l-3.21-8.433 3.013-1.146 2.886 7.583 8.291-3.156c-0.705-0.092-1.315-0.321-1.829-0.687-0.523-0.37-0.891-0.836-1.105-1.396v0l-1.994-5.241c-0.172-0.453-0.22-0.929-0.143-1.427 0.077-0.498 0.261-0.971 0.551-1.421 0.284-0.447 0.66-0.86 1.128-1.24 0.47-0.374 1.014-0.678 1.632-0.913z" fill="#000000" data-fill-palette-color="accent"></path><path d="M12.227 182.863l18.679-6.459c0.649-0.225 1.296-0.345 1.939-0.361 0.637-0.014 1.222 0.062 1.757 0.227 0.53 0.173 0.989 0.428 1.376 0.764 0.387 0.337 0.663 0.744 0.829 1.221v0l5.121 14.811-3.132 1.084-4.795-13.866-21.734 7.515 3.292 9.521 13.169-4.553 1.515 4.383-18.529 6.365c-0.63 0.218-1.256 0.335-1.879 0.35-0.622 0.015-1.2-0.059-1.734-0.224-0.532-0.158-0.995-0.404-1.389-0.738-0.387-0.337-0.662-0.74-0.825-1.212v0l-0.317-0.917 6.809-2.354-3.619-10.466c-0.165-0.477-0.196-0.969-0.093-1.476 0.103-0.506 0.306-0.99 0.61-1.451 0.312-0.457 0.723-0.877 1.232-1.26 0.503-0.381 1.076-0.682 1.718-0.904z" fill="#000000" data-fill-palette-color="accent"></path><path d="M47.815 240.959l6.541-7.648c0.508-0.594 1.065-1.079 1.671-1.457 0.606-0.377 1.214-0.632 1.825-0.765 0.611-0.124 1.204-0.127 1.777-0.01 0.578 0.122 1.095 0.378 1.551 0.768v0l10.036 8.584-11.165 13.054 3.225 2.758c-0.334 0.317-0.711 0.567-1.132 0.748-0.426 0.177-0.852 0.281-1.279 0.314-0.433 0.029-0.854-0.017-1.265-0.138-0.411-0.121-0.78-0.321-1.108-0.601v0l-1.589-1.36c-0.486-0.416-0.807-0.979-0.963-1.688-0.151-0.705-0.128-1.462 0.066-2.269v0c-0.768 0.318-1.515 0.455-2.239 0.411-0.72-0.039-1.323-0.267-1.809-0.683v0l-4.508-3.855c-0.389-0.333-0.672-0.748-0.849-1.246-0.177-0.497-0.249-1.02-0.216-1.567 0.033-0.557 0.17-1.126 0.412-1.709 0.237-0.577 0.576-1.125 1.018-1.641zM50.345 245.183l6.158 5.267 8.971-10.489-6.158-5.267z" fill="#000000" data-fill-palette-color="accent"></path><path d="M105.689 273.346l6.4-25.396 4.546 1.146-6.795 26.964 4.047 1.02c-0.207 0.49-0.466 0.911-0.777 1.263-0.311 0.352-0.649 0.632-1.014 0.838-0.37 0.199-0.76 0.326-1.17 0.383-0.409 0.05-0.815 0.024-1.22-0.078v0l-1.597-0.403c-0.496-0.125-0.935-0.371-1.315-0.738-0.38-0.367-0.679-0.807-0.896-1.32-0.216-0.52-0.346-1.094-0.389-1.723-0.048-0.637 0.012-1.289 0.18-1.956z" fill="#000000" data-fill-palette-color="accent"></path><path d="M159.554 275.894l-2.081-9.846c-0.162-0.764-0.207-1.502-0.137-2.212 0.07-0.71 0.238-1.348 0.504-1.914 0.274-0.561 0.632-1.032 1.074-1.415 0.449-0.384 0.967-0.638 1.554-0.762v0l12.92-2.732 3.553 16.806 4.152-0.877c0.049 0.458 0.017 0.909-0.096 1.352-0.119 0.445-0.296 0.847-0.53 1.207-0.24 0.361-0.534 0.667-0.88 0.919-0.346 0.252-0.73 0.423-1.151 0.512v0l-2.047 0.433c-0.626 0.132-1.268 0.044-1.925-0.265-0.651-0.31-1.237-0.788-1.76-1.435v0c-0.216 0.803-0.562 1.479-1.038 2.027-0.47 0.547-1.018 0.886-1.643 1.019v0l-5.803 1.226c-0.501 0.106-1.003 0.078-1.505-0.084-0.502-0.162-0.96-0.423-1.374-0.784-0.421-0.365-0.79-0.821-1.105-1.367-0.314-0.54-0.541-1.142-0.682-1.808zM164.445 276.461l7.929-1.676-2.855-13.504-7.928 1.676z" fill="#000000" data-fill-palette-color="accent"></path><path d="M221.558 255.164l-0.837-13.629-11.919-2.468 3.439-3.021 8.223 1.491-0.51-8.266 3.446-3.028 0.879 11.978 9.534 1.712 2.087-1.834c0.262 0.38 0.453 0.786 0.573 1.218 0.124 0.438 0.176 0.863 0.154 1.277-0.023 0.423-0.118 0.83-0.287 1.221-0.168 0.39-0.412 0.725-0.731 1.005v0l-1.632 1.434-9.384-1.925 0.7 9.554z" fill="#000000" data-fill-palette-color="accent"></path><path d="M259.886 199.203l-14.495-5.605 1.691-4.372 16.003 6.187 2.908-7.521-16.003-6.187 1.691-4.373 16.002 6.187 1.425-3.685c0.408 0.215 0.767 0.492 1.077 0.829 0.31 0.337 0.552 0.701 0.726 1.093 0.171 0.398 0.268 0.811 0.29 1.239 0.022 0.428-0.044 0.842-0.199 1.244v0l-0.19 0.49 5.212 2.015c0.641 0.248 1.209 0.572 1.704 0.973 0.499 0.41 0.895 0.852 1.188 1.326 0.299 0.477 0.494 0.974 0.582 1.493 0.089 0.518 0.041 1.016-0.144 1.493v0l-3.418 8.84-3.167-1.224 3.072-7.945-8.67-3.352c0.477 0.56 0.792 1.165 0.944 1.816 0.144 0.655 0.103 1.275-0.123 1.86v0l-2.125 5.494c-0.185 0.477-0.482 0.882-0.892 1.215-0.41 0.332-0.882 0.573-1.416 0.72-0.542 0.151-1.128 0.21-1.758 0.176-0.636-0.036-1.274-0.179-1.915-0.426z" fill="#000000" data-fill-palette-color="accent"></path><path d="M0.459 144.316c0-6.265 5.079-11.344 11.344-11.344 6.265 0 11.344 5.079 11.344 11.344 0 6.265-5.079 11.344-11.344 11.344-6.265 0-11.344-5.079-11.344-11.344z" fill="#000000" data-fill-palette-color="accent"></path><path d="M255.092 144.316c0-6.265 5.079-11.344 11.344-11.344 6.265 0 11.344 5.079 11.344 11.344 0 6.265-5.079 11.344-11.344 11.344-6.265 0-11.344-5.079-11.344-11.344z" fill="#000000" data-fill-palette-color="accent"></path></g><g id="text-1"></g></svg></g><defs></defs></svg><rect width="280" height="280" fill="none" stroke="none" visibility="hidden"></rect></g></svg></g></svg>